<mxfile host="Electron" modified="2023-08-26T13:33:18.178Z" agent="Mozilla/5.0 (X11; Linux x86_64) AppleWebKit/537.36 (KHTML, like Gecko) draw.io/21.6.8 Chrome/114.0.5735.289 Electron/25.5.0 Safari/537.36" etag="fq4uopIje4nZu2oCqc-C" version="21.6.8" type="device">
  <diagram name="Machines" id="aeC86v-qmZ_kQHXDmNWI">
    <mxGraphModel dx="1493" dy="1748" grid="1" gridSize="10" guides="1" tooltips="1" connect="1" arrows="1" fold="1" page="0" pageScale="1" pageWidth="850" pageHeight="1100" math="0" shadow="0">
      <root>
        <mxCell id="0" />
        <mxCell id="1" parent="0" />
        <mxCell id="go5KvQTuqCnuExYSZ_wF-9" value="Home" style="sketch=0;outlineConnect=0;html=1;whiteSpace=wrap;fontSize=12;fontStyle=0;shape=mxgraph.aws4.group;grIcon=mxgraph.aws4.group_on_premise;verticalAlign=top;align=left;spacingLeft=30;dashed=0;container=1;recursiveResize=0;collapsible=0;fillStyle=auto;fillColor=#b1ddf0;strokeColor=#10739e;" parent="1" vertex="1">
          <mxGeometry y="321" width="840" height="400" as="geometry" />
        </mxCell>
        <mxCell id="go5KvQTuqCnuExYSZ_wF-11" value="nuc2 - 4C / 16GB / 240GB" style="points=[[0,0],[0.25,0],[0.5,0],[0.75,0],[1,0],[1,0.25],[1,0.5],[1,0.75],[1,1],[0.75,1],[0.5,1],[0.25,1],[0,1],[0,0.75],[0,0.5],[0,0.25]];outlineConnect=0;html=1;whiteSpace=wrap;fontSize=12;fontStyle=0;container=1;pointerEvents=0;collapsible=0;recursiveResize=0;shape=mxgraph.aws4.group;grIcon=mxgraph.aws4.group_on_premise;verticalAlign=top;align=left;spacingLeft=30;dashed=0;fillColor=#f5f5f5;fontColor=#333333;strokeColor=#666666;" parent="go5KvQTuqCnuExYSZ_wF-9" vertex="1">
          <mxGeometry x="200" y="40" width="160" height="290" as="geometry" />
        </mxCell>
        <mxCell id="05O7YxDWI-AsjeTJ3Xa6-5" value="db-2" style="rounded=0;whiteSpace=wrap;html=1;fillColor=#fff2cc;strokeColor=#d6b656;" vertex="1" parent="go5KvQTuqCnuExYSZ_wF-11">
          <mxGeometry x="20" y="210" width="120" height="60" as="geometry" />
        </mxCell>
        <mxCell id="05O7YxDWI-AsjeTJ3Xa6-3" value="&lt;div&gt;runner-2&lt;/div&gt;&lt;div&gt;2C 4GB&lt;br&gt;&lt;/div&gt;" style="rounded=0;whiteSpace=wrap;html=1;fillColor=#f8cecc;strokeColor=#b85450;" vertex="1" parent="go5KvQTuqCnuExYSZ_wF-11">
          <mxGeometry x="20" y="40" width="120" height="40" as="geometry" />
        </mxCell>
        <mxCell id="go5KvQTuqCnuExYSZ_wF-17" value="&lt;div&gt;worker-sm-tst-2&lt;/div&gt;1C 2GB" style="rounded=0;whiteSpace=wrap;html=1;fillColor=#d5e8d4;strokeColor=#82b366;" parent="go5KvQTuqCnuExYSZ_wF-11" vertex="1">
          <mxGeometry x="20" y="89" width="120" height="40" as="geometry" />
        </mxCell>
        <mxCell id="go5KvQTuqCnuExYSZ_wF-18" value="&lt;div&gt;worker1.2-prd-2&lt;/div&gt;&lt;div&gt;1C 2GB&lt;br&gt;&lt;/div&gt;" style="rounded=0;whiteSpace=wrap;html=1;fillColor=#dae8fc;strokeColor=#6c8ebf;" parent="go5KvQTuqCnuExYSZ_wF-11" vertex="1">
          <mxGeometry x="20" y="140" width="120" height="60" as="geometry" />
        </mxCell>
        <mxCell id="go5KvQTuqCnuExYSZ_wF-10" value="nuc1 - 4C / 16GB / 240GB" style="points=[[0,0],[0.25,0],[0.5,0],[0.75,0],[1,0],[1,0.25],[1,0.5],[1,0.75],[1,1],[0.75,1],[0.5,1],[0.25,1],[0,1],[0,0.75],[0,0.5],[0,0.25]];outlineConnect=0;html=1;whiteSpace=wrap;fontSize=12;fontStyle=0;container=1;pointerEvents=0;collapsible=0;recursiveResize=0;shape=mxgraph.aws4.group;grIcon=mxgraph.aws4.group_on_premise;strokeColor=#666666;fillColor=#f5f5f5;verticalAlign=top;align=left;spacingLeft=30;fontColor=#333333;dashed=0;" parent="go5KvQTuqCnuExYSZ_wF-9" vertex="1">
          <mxGeometry x="20" y="40" width="160" height="290" as="geometry" />
        </mxCell>
        <mxCell id="go5KvQTuqCnuExYSZ_wF-14" value="&lt;div&gt;runner-1&lt;/div&gt;&lt;div&gt;2C 4GB&lt;br&gt;&lt;/div&gt;" style="rounded=0;whiteSpace=wrap;html=1;fillColor=#f8cecc;strokeColor=#b85450;" parent="go5KvQTuqCnuExYSZ_wF-10" vertex="1">
          <mxGeometry x="20" y="40" width="120" height="40" as="geometry" />
        </mxCell>
        <mxCell id="go5KvQTuqCnuExYSZ_wF-13" value="&lt;div&gt;worker-sm-tst-1&lt;/div&gt;1C 4GB" style="rounded=0;whiteSpace=wrap;html=1;fillColor=#d5e8d4;strokeColor=#82b366;" parent="go5KvQTuqCnuExYSZ_wF-9" vertex="1">
          <mxGeometry x="40" y="130" width="120" height="40" as="geometry" />
        </mxCell>
        <mxCell id="go5KvQTuqCnuExYSZ_wF-15" value="&lt;div&gt;worker1.2-prd-1&lt;/div&gt;&lt;div&gt;1C 2GB&lt;br&gt;&lt;/div&gt;" style="rounded=0;whiteSpace=wrap;html=1;fillColor=#dae8fc;strokeColor=#6c8ebf;" parent="go5KvQTuqCnuExYSZ_wF-9" vertex="1">
          <mxGeometry x="40" y="180" width="120" height="60" as="geometry" />
        </mxCell>
        <mxCell id="05O7YxDWI-AsjeTJ3Xa6-4" value="db-1" style="rounded=0;whiteSpace=wrap;html=1;fillColor=#fff2cc;strokeColor=#d6b656;" vertex="1" parent="go5KvQTuqCnuExYSZ_wF-9">
          <mxGeometry x="40" y="250" width="120" height="60" as="geometry" />
        </mxCell>
        <mxCell id="05O7YxDWI-AsjeTJ3Xa6-11" value="nuc3 - 12C / 64GB / 240GB" style="points=[[0,0],[0.25,0],[0.5,0],[0.75,0],[1,0],[1,0.25],[1,0.5],[1,0.75],[1,1],[0.75,1],[0.5,1],[0.25,1],[0,1],[0,0.75],[0,0.5],[0,0.25]];outlineConnect=0;html=1;whiteSpace=wrap;fontSize=12;fontStyle=0;container=1;pointerEvents=0;collapsible=0;recursiveResize=0;shape=mxgraph.aws4.group;grIcon=mxgraph.aws4.group_on_premise;verticalAlign=top;align=left;spacingLeft=30;dashed=0;fillColor=#f5f5f5;fontColor=#333333;strokeColor=#666666;" vertex="1" parent="go5KvQTuqCnuExYSZ_wF-9">
          <mxGeometry x="380" y="40" width="430" height="290" as="geometry" />
        </mxCell>
        <mxCell id="05O7YxDWI-AsjeTJ3Xa6-12" value="db-2" style="rounded=0;whiteSpace=wrap;html=1;fillColor=#fff2cc;strokeColor=#d6b656;" vertex="1" parent="05O7YxDWI-AsjeTJ3Xa6-11">
          <mxGeometry x="20" y="210" width="120" height="60" as="geometry" />
        </mxCell>
        <mxCell id="05O7YxDWI-AsjeTJ3Xa6-15" value="&lt;div&gt;worker-md-prd-3&lt;/div&gt;&lt;div&gt;2C / 4GB&lt;br&gt;&lt;/div&gt;" style="rounded=0;whiteSpace=wrap;html=1;fillColor=#dae8fc;strokeColor=#6c8ebf;" vertex="1" parent="05O7YxDWI-AsjeTJ3Xa6-11">
          <mxGeometry x="20" y="140" width="120" height="60" as="geometry" />
        </mxCell>
        <mxCell id="05O7YxDWI-AsjeTJ3Xa6-19" value="&lt;div&gt;worker-md-prd-4&lt;/div&gt;&lt;div&gt;2C / 4GB&lt;br&gt;&lt;/div&gt;" style="rounded=0;whiteSpace=wrap;html=1;fillColor=#dae8fc;strokeColor=#6c8ebf;" vertex="1" parent="05O7YxDWI-AsjeTJ3Xa6-11">
          <mxGeometry x="155" y="140" width="120" height="60" as="geometry" />
        </mxCell>
        <mxCell id="05O7YxDWI-AsjeTJ3Xa6-25" value="control-prd-1&lt;br&gt;1C / 2GB" style="rounded=0;whiteSpace=wrap;html=1;fillColor=#dae8fc;strokeColor=#6c8ebf;fontStyle=1" vertex="1" parent="05O7YxDWI-AsjeTJ3Xa6-11">
          <mxGeometry x="20" y="89" width="120" height="41" as="geometry" />
        </mxCell>
        <mxCell id="05O7YxDWI-AsjeTJ3Xa6-14" value="&lt;div&gt;worker-md-tst-2&lt;/div&gt;2C / 4GB" style="rounded=0;whiteSpace=wrap;html=1;fillColor=#d5e8d4;strokeColor=#82b366;" vertex="1" parent="go5KvQTuqCnuExYSZ_wF-9">
          <mxGeometry x="400" y="79" width="120" height="40" as="geometry" />
        </mxCell>
        <mxCell id="05O7YxDWI-AsjeTJ3Xa6-17" value="&lt;div&gt;worker-md-tst-2&lt;/div&gt;2C / 4GB" style="rounded=0;whiteSpace=wrap;html=1;fillColor=#d5e8d4;strokeColor=#82b366;" vertex="1" parent="go5KvQTuqCnuExYSZ_wF-9">
          <mxGeometry x="530" y="79" width="120" height="40" as="geometry" />
        </mxCell>
        <mxCell id="05O7YxDWI-AsjeTJ3Xa6-6" value="Hetzner nbg1" style="points=[[0,0],[0.25,0],[0.5,0],[0.75,0],[1,0],[1,0.25],[1,0.5],[1,0.75],[1,1],[0.75,1],[0.5,1],[0.25,1],[0,1],[0,0.75],[0,0.5],[0,0.25]];outlineConnect=0;html=1;whiteSpace=wrap;fontSize=12;fontStyle=0;container=1;pointerEvents=0;collapsible=0;recursiveResize=0;shape=mxgraph.aws4.group;grIcon=mxgraph.aws4.group_aws_cloud;verticalAlign=top;align=left;spacingLeft=30;dashed=0;fillColor=#f5f5f5;strokeColor=#666666;fontColor=#333333;" vertex="1" parent="1">
          <mxGeometry y="-100" width="280" height="260" as="geometry" />
        </mxCell>
        <mxCell id="05O7YxDWI-AsjeTJ3Xa6-24" value="control-prd-2&lt;br&gt;1C 2GB" style="rounded=0;whiteSpace=wrap;html=1;fillColor=#dae8fc;strokeColor=#6c8ebf;fontStyle=1" vertex="1" parent="05O7YxDWI-AsjeTJ3Xa6-6">
          <mxGeometry x="20" y="40" width="120" height="40" as="geometry" />
        </mxCell>
        <mxCell id="05O7YxDWI-AsjeTJ3Xa6-7" value="Hetzner hel1" style="points=[[0,0],[0.25,0],[0.5,0],[0.75,0],[1,0],[1,0.25],[1,0.5],[1,0.75],[1,1],[0.75,1],[0.5,1],[0.25,1],[0,1],[0,0.75],[0,0.5],[0,0.25]];outlineConnect=0;html=1;whiteSpace=wrap;fontSize=12;fontStyle=0;container=1;pointerEvents=0;collapsible=0;recursiveResize=0;shape=mxgraph.aws4.group;grIcon=mxgraph.aws4.group_aws_cloud;verticalAlign=top;align=left;spacingLeft=30;dashed=0;fillColor=#f5f5f5;fontColor=#333333;strokeColor=#666666;" vertex="1" parent="1">
          <mxGeometry x="680" y="-100" width="160" height="140" as="geometry" />
        </mxCell>
        <mxCell id="05O7YxDWI-AsjeTJ3Xa6-20" value="monitor" style="rounded=0;whiteSpace=wrap;html=1;fillColor=#e1d5e7;strokeColor=#9673a6;" vertex="1" parent="05O7YxDWI-AsjeTJ3Xa6-7">
          <mxGeometry x="20" y="40" width="120" height="60" as="geometry" />
        </mxCell>
        <mxCell id="05O7YxDWI-AsjeTJ3Xa6-22" value="Hetzner fsn1" style="points=[[0,0],[0.25,0],[0.5,0],[0.75,0],[1,0],[1,0.25],[1,0.5],[1,0.75],[1,1],[0.75,1],[0.5,1],[0.25,1],[0,1],[0,0.75],[0,0.5],[0,0.25]];outlineConnect=0;html=1;whiteSpace=wrap;fontSize=12;fontStyle=0;container=1;pointerEvents=0;collapsible=0;recursiveResize=0;shape=mxgraph.aws4.group;grIcon=mxgraph.aws4.group_aws_cloud;verticalAlign=top;align=left;spacingLeft=30;dashed=0;fillColor=#f5f5f5;strokeColor=#666666;fontColor=#333333;" vertex="1" parent="1">
          <mxGeometry x="320" y="-100" width="280" height="260" as="geometry" />
        </mxCell>
        <mxCell id="05O7YxDWI-AsjeTJ3Xa6-23" value="control-prd-3&lt;br&gt;1C 2GB" style="rounded=0;whiteSpace=wrap;html=1;fillColor=#dae8fc;strokeColor=#6c8ebf;fontStyle=1" vertex="1" parent="05O7YxDWI-AsjeTJ3Xa6-22">
          <mxGeometry x="20" y="40" width="120" height="40" as="geometry" />
        </mxCell>
      </root>
    </mxGraphModel>
  </diagram>
</mxfile>
